<svg width="300" height="300" viewBox="0 0 300 300" fill="none" xmlns="http://www.w3.org/2000/svg">
<path d="M153.77 181.583V181.915V187.453H151.336V181.915V177.484V171.946H156.648V174.382H153.77V179.146H156.424V181.583H153.77Z" fill="white"/>
<path d="M157.732 181.915L158.905 171.946H162.556L163.752 181.98L164.394 187.453H161.849L161.737 186.235C161.693 185.816 161.646 185.371 161.603 184.952H159.743C159.653 186.148 159.545 187.233 159.523 187.457H157.089C157.179 186.745 157.533 183.755 157.732 181.915ZM161.408 182.624L161.343 181.915L160.7 175.047H160.657L160.036 181.915L159.971 182.624H161.408Z" fill="white"/>
<path d="M171.924 176.822H169.49C169.49 174.961 169.335 174.274 168.782 174.274C168.23 174.274 168.161 174.827 168.161 175.38C168.161 177.816 172.036 179.945 172.036 183.82C172.036 186.036 170.931 187.674 168.826 187.674C166.236 187.674 165.507 185.458 165.507 182.356H167.941C167.941 184.24 168.183 185.125 168.804 185.125C169.313 185.125 169.49 184.482 169.49 183.795C169.49 180.914 165.615 179.23 165.615 175.376C165.615 173.272 166.72 171.722 168.779 171.722C171.036 171.725 171.924 173.276 171.924 176.822Z" fill="white"/>
<path d="M175.022 181.915V174.382H173.253V171.946H179.23V174.382H177.46V181.915V187.453H175.026V181.915H175.022Z" fill="white"/>
<path d="M187.861 181.583V181.915V187.453H185.427V181.915V177.484V171.946H190.739V174.382H187.861V179.146H190.515V181.583H187.861Z" fill="white"/>
<path d="M199.926 171.725C204.44 171.725 207.892 175.181 207.892 179.699C207.892 184.218 204.44 187.674 199.926 187.674C195.412 187.674 191.959 184.218 191.959 179.699C191.959 175.181 195.412 171.725 199.926 171.725ZM194.614 179.699C194.614 182.956 196.892 185.129 199.926 185.129C202.959 185.129 205.238 182.956 205.238 179.699C205.238 176.442 202.959 174.27 199.926 174.27C196.892 174.274 194.614 176.442 194.614 179.699Z" fill="white"/>
<path d="M217.303 171.725C221.817 171.725 225.27 175.181 225.27 179.699C225.27 184.218 221.817 187.674 217.303 187.674C212.789 187.674 209.337 184.218 209.337 179.699C209.337 175.181 212.789 171.725 217.303 171.725ZM211.995 179.699C211.995 182.956 214.274 185.129 217.307 185.129C220.34 185.129 222.619 182.956 222.619 179.699C222.619 176.442 220.34 174.27 217.307 174.27C214.274 174.274 211.995 176.442 211.995 179.699Z" fill="white"/>
<path d="M227.158 181.915V177.462V171.946H229.592C233.222 171.946 234.128 175.159 234.128 179.7C234.128 184.24 233.222 187.453 229.592 187.453H227.158V181.915ZM231.586 179.7C231.586 175.933 231.12 174.382 229.592 174.382V185.017C231.12 185.017 231.586 183.466 231.586 179.7Z" fill="white"/>
<path d="M240.661 181.915V177.042V171.993V171.949H243.207L244.467 177.046L244.842 178.532H244.886L245.261 177.046L246.522 171.949H249.068V171.993V177.042V181.915V187.41V187.453H246.634V187.41V181.915V179.479H246.59L245.904 181.915L244.886 185.461H244.842L243.824 181.915L243.138 179.479H243.095V181.915V187.41V187.453H240.661V187.41V181.915Z" fill="white"/>
<path d="M251.267 181.915L252.441 171.946H256.092L257.287 181.98L257.93 187.453H255.384L255.272 186.235C255.229 185.816 255.182 185.371 255.139 184.952H253.279C253.192 186.148 253.08 187.233 253.058 187.457H250.625C250.715 186.745 251.069 183.755 251.267 181.915ZM254.94 182.624L254.875 181.915L254.232 175.047H254.189L253.568 181.915L253.503 182.624H254.94Z" fill="white"/>
<path d="M261.96 182.136H261.917C261.917 184.728 261.917 186.965 261.917 187.453H259.483V181.915V177.484V171.946H261.917C264.441 171.946 266.124 173.609 266.124 176.931C266.124 179.146 265.395 180.719 264.152 181.518L265.723 186.347L266.077 187.453H263.531L261.96 182.136ZM263.574 177.043C263.574 175.047 262.953 174.386 261.913 174.386V179.703C262.953 179.7 263.574 179.034 263.574 177.043Z" fill="white"/>
<path d="M267.893 181.915V177.484V171.946H270.327V177.484V181.915V187.453H267.893V181.915Z" fill="white"/>
<path d="M272.653 181.915V177.043V171.946H274.867L276.174 177.043L276.925 179.924H276.969V177.043V171.946H279.182V177.484V187.453H276.969C276.481 185.613 275.994 183.752 275.532 181.915L274.91 179.479H274.867V181.915V187.453H272.653V181.915Z" fill="white"/>
<path d="M289.034 171.725C293.548 171.725 297 175.181 297 179.699C297 184.218 293.548 187.674 289.034 187.674C284.52 187.674 281.067 184.218 281.067 179.699C281.067 175.181 284.516 171.725 289.034 171.725ZM283.722 179.699C283.722 182.956 286 185.129 289.034 185.129C292.067 185.129 294.346 182.956 294.346 179.699C294.346 176.442 292.067 174.27 289.034 174.27C286 174.274 283.722 176.442 283.722 179.699Z" fill="white"/>
<path d="M191.753 142.619L193.115 147.214L195.798 156.092H196.314L199.001 147.21L200.363 142.619V160.982H207.181V122.431H200.135L196.827 135.122L196.058 138.007L195.289 135.126L191.981 122.431H184.932V160.982H191.753V142.619Z" fill="white"/>
<path d="M219.755 122.431H212.934V160.982H219.755V122.431Z" fill="white"/>
<path d="M225.324 122.377V160.983H238.718V154.769H232.145V122.377H225.324Z" fill="white"/>
<path d="M242.466 122.377V160.983H255.857V154.769H249.288V122.377H242.466Z" fill="white"/>
<path d="M266.669 148.627L266.813 147.167L268.207 132.483L269.796 148.627H266.669ZM263.393 122.431L260.338 147.112V147.116C259.833 151.551 258.915 158.908 258.681 160.697L258.645 160.982H265.477L265.513 160.65C265.733 158.579 265.914 156.627 266.055 154.844H270.367C270.414 155.285 270.464 155.734 270.511 156.182C270.569 156.717 270.627 157.252 270.684 157.765L270.991 160.986H278.109L276.416 147.279L273.303 122.434H263.393V122.431Z" fill="white"/>
<path d="M287.001 131.11C287.001 129.339 287.373 128.649 288.333 128.649C289.5 128.649 289.893 130.16 289.893 134.646V134.899H296.715V134.646C296.715 130.109 296.108 127.047 294.805 125.005C293.468 122.912 291.352 121.893 288.333 121.893C285.711 121.893 283.541 122.807 282.046 124.531C280.638 126.162 279.894 128.439 279.894 131.114C279.894 136.272 282.869 139.934 285.495 143.166C287.759 145.949 289.893 148.581 289.893 151.769C289.893 154.484 288.842 154.776 288.391 154.776C287.037 154.776 286.43 152.759 286.43 148.237V147.984H279.608V148.237C279.608 153.945 280.526 161.536 288.449 161.536C293.725 161.536 297 157.816 297 151.827C297 146.437 293.858 142.428 291.085 138.889C288.893 136.084 287.001 133.67 287.001 131.11Z" fill="white"/>
<path d="M116.094 127.749H116.228L116.202 127.698C123.302 127.742 127.885 132.108 127.885 138.853C127.885 147.847 119.218 156.034 109.702 156.034H109.569L109.594 156.089C102.494 156.045 97.9115 151.679 97.9115 144.933C97.9151 135.94 106.578 127.749 116.094 127.749ZM112.447 161.894H112.501H112.635C124.393 161.829 133.934 152.882 133.934 141.893C133.934 130.695 124.898 121.918 113.353 121.889H113.299H113.165C101.407 121.954 91.8662 130.904 91.8662 141.89C91.8662 153.092 100.902 161.869 112.447 161.894Z" fill="white"/>
<path d="M160.274 127.749H160.407L160.382 127.695C167.482 127.738 172.065 132.108 172.065 138.85C172.065 147.843 163.398 156.031 153.882 156.031H153.748L153.774 156.085C146.674 156.042 142.091 151.671 142.091 144.93C142.091 135.94 150.758 127.749 160.274 127.749ZM156.626 161.898H156.814C168.573 161.829 178.113 152.882 178.113 141.893C178.113 130.695 169.078 121.918 157.533 121.889H157.345C145.587 121.958 136.046 130.904 136.046 141.893C136.046 153.092 145.081 161.869 156.626 161.898Z" fill="white"/>
<path d="M89.4643 154.842H79.4106C80.7468 152.04 82.2454 149.586 83.6971 147.207C86.1889 143.13 88.5398 139.28 89.244 134.776C89.5691 132.383 89.3307 130.008 89.3018 129.744C88.6337 124.853 85.8783 122.272 81.3354 122.272C78.1214 122.272 75.9799 123.288 74.6004 125.468C73.1414 127.767 72.4625 131.436 72.4625 137.01V137.089H78.9122V137.01C78.9122 130.547 79.4034 128.674 81.1115 128.674C81.6171 128.674 81.9926 128.902 82.2635 129.372L82.3213 129.47C82.3465 129.516 82.3754 129.585 82.4115 129.676L82.426 129.715C82.4404 129.759 82.4585 129.806 82.4729 129.856C82.5271 130.023 82.5704 130.203 82.6102 130.406L82.6174 130.438C82.6246 130.482 82.6354 130.525 82.6391 130.572C82.8052 131.566 82.8774 133.399 82.2924 136.468C82.0576 138.04 81.6676 139.616 81.0898 141.29L81.032 141.453C79.8981 144.677 78.1755 148.024 75.9943 152.261C74.7123 154.751 73.257 157.575 71.6753 160.857L71.6211 160.969H89.4752V154.842H89.4643Z" fill="white"/>
<path d="M31.836 144.764C31.8866 144.756 31.9299 144.727 31.948 144.684C32.2441 143.867 32.5402 143.05 32.8363 142.226C33.1541 141.344 33.8872 141.611 34.0642 141.691C34.8622 142.074 35.6567 142.461 36.4548 142.844C36.4981 142.859 36.5487 142.851 36.592 142.819C36.6426 142.779 36.6607 142.721 36.6426 142.667C36.2742 141.879 35.9059 141.095 35.5339 140.296H35.5375C35.5375 140.296 35.0609 139.388 36.0684 139.031H36.0576C36.8845 138.741 37.7043 138.456 38.5241 138.167C38.5782 138.152 38.6143 138.102 38.618 138.044C38.6216 137.982 38.5855 137.932 38.5313 137.91C37.6718 137.599 36.8123 137.288 35.9492 136.974C35.9492 136.974 35.9456 136.974 35.942 136.97C35.9384 136.966 35.9312 136.966 35.9276 136.963C35.7903 136.912 35.1331 136.619 35.4978 135.864H35.4942C35.8878 135.047 36.2779 134.234 36.6679 133.42C36.6968 133.366 36.6895 133.301 36.6462 133.254C36.6029 133.203 36.5343 133.193 36.4801 133.214C35.7037 133.579 34.92 133.945 34.1364 134.31V134.306C33.1686 134.761 32.8724 133.775 32.8724 133.775V133.778C32.5835 132.95 32.2946 132.13 32.0057 131.309C31.9805 131.259 31.9227 131.226 31.8613 131.233C31.8107 131.241 31.7674 131.27 31.7493 131.309C31.446 132.152 31.139 132.997 30.8321 133.847C30.7382 134.06 30.4096 134.639 29.6584 134.317C28.8495 133.926 28.0442 133.54 27.2425 133.153C27.1991 133.138 27.1486 133.146 27.1053 133.178C27.0547 133.218 27.0366 133.279 27.0547 133.334C27.4267 134.129 27.8022 134.928 28.1778 135.73C28.25 135.897 28.5281 136.652 27.6289 136.963C26.8127 137.248 26.0002 137.534 25.1913 137.82C25.1335 137.841 25.0938 137.899 25.0974 137.964C25.101 138.018 25.1335 138.065 25.1805 138.091C26.0327 138.398 26.8886 138.709 27.7481 139.02H27.7444C28.4595 139.276 28.3114 139.847 28.232 140.054C27.8203 140.907 27.4122 141.756 27.0041 142.606C26.9789 142.66 26.9897 142.721 27.0366 142.761C27.0764 142.797 27.1341 142.804 27.1811 142.783C27.972 142.414 28.7592 142.042 29.5573 141.669L29.5501 141.677C30.5179 141.221 30.814 142.208 30.814 142.208V142.204C31.1029 143.032 31.3918 143.849 31.6771 144.67C31.7168 144.738 31.7746 144.771 31.836 144.764Z" fill="#E40032"/>
<path d="M42.1463 153.049C44.0963 153.049 45.967 153.826 47.3465 155.207C50.0549 157.918 54.3487 158.073 57.2413 155.669C57.5808 155.044 57.8986 154.401 58.1947 153.746C54.5257 151.943 49.9935 149.85 45.967 148.151C41.8574 146.387 38.275 145.027 36.3682 144.308C35.8879 145.606 35.0032 148.049 34.2376 150.995C33.5226 153.598 32.9014 155.539 32.4897 157.321C34.1184 157.155 35.7002 156.45 36.946 155.203C38.3255 153.822 40.1962 153.049 42.1463 153.049Z" fill="#E40032"/>
<path d="M21.0096 135.35C19.7781 134.233 17.4489 132.144 14.4226 129.748C12.5737 128.258 10.4575 126.646 8.36294 125.121C5.86756 128.62 4.13416 132.697 3.39746 137.118C5.50644 136.959 7.60097 136.786 9.55827 136.601C14.6068 136.149 18.7923 135.632 21.0096 135.35Z" fill="#E40032"/>
<path d="M21.0094 140.599C18.7884 140.317 14.6102 139.804 9.56527 139.359C7.53213 139.168 5.35454 138.991 3.16251 138.828C3.05778 139.833 3 140.856 3 141.89C3 145.855 3.79809 149.629 5.24259 153.07C8.23994 150.981 11.6381 148.462 14.4188 146.21C17.4523 143.809 19.7815 141.716 21.0094 140.599Z" fill="#E40032"/>
<path d="M16.1375 155.203C19.0121 152.326 23.667 152.326 26.5416 155.203C27.8561 156.519 29.5425 157.231 31.2651 157.343C30.8534 155.557 30.2287 153.609 29.51 150.995C28.7408 148.049 27.8561 145.606 27.3758 144.312C25.4654 145.031 21.883 146.394 17.7734 148.161C13.7469 149.86 9.21475 151.957 5.54932 153.764C5.896 154.531 6.27157 155.275 6.67964 156.005C9.55059 158.048 13.5591 157.784 16.1375 155.203Z" fill="#E40032"/>
<path d="M17.759 127.792C21.8722 129.56 25.4582 130.919 27.3686 131.638C27.8489 130.34 28.7336 127.9 29.4992 124.954C30.5934 120.975 31.4637 116.055 31.7057 113.004C22.5945 113.055 14.48 117.327 9.22559 123.975C12.0171 125.283 15.0072 126.632 17.759 127.792Z" fill="#E40032"/>
<path d="M34.2259 124.947C34.9951 127.893 35.8799 130.333 36.3602 131.631C38.2705 130.911 41.8529 129.549 45.9625 127.781C48.7143 126.617 51.7044 125.272 54.4959 123.956C49.2379 117.316 41.1234 113.047 32.0122 113C32.2542 116.054 33.1281 120.971 34.2259 124.947Z" fill="#E40032"/>
<path d="M42.7207 140.595C43.9521 141.709 46.2814 143.802 49.3113 146.202C52.0955 148.45 55.4937 150.966 58.4947 153.056C59.932 149.622 60.7301 145.848 60.7301 141.893C60.7301 140.852 60.6723 139.825 60.5676 138.817C58.3755 138.98 56.2015 139.16 54.1684 139.352C49.1199 139.797 44.938 140.313 42.7207 140.595Z" fill="#E40032"/>
<path d="M42.7168 135.343C44.9341 135.621 49.1232 136.138 54.1717 136.587C56.129 136.771 58.2199 136.941 60.3289 137.1C59.5922 132.683 57.8552 128.605 55.3562 125.106C53.2653 126.631 51.1455 128.244 49.3001 129.737C46.2775 132.137 43.9446 134.23 42.7168 135.343Z" fill="#E40032"/>
<path d="M42.1463 164.211C40.1962 164.211 38.3256 164.988 36.9461 166.369C34.0715 169.246 29.4166 169.246 26.542 166.369C23.7216 163.546 19.1787 163.495 16.2969 166.217C20.7893 169.105 26.1303 170.783 31.8686 170.783C37.5419 170.783 42.8324 169.142 47.2923 166.311C45.9164 164.966 44.0711 164.211 42.1463 164.211Z" fill="#E40032"/>
<path d="M13.6026 164.257C14.527 163.9 15.3937 163.347 16.1377 162.602C19.0122 159.725 23.6671 159.725 26.5417 162.602C29.4163 165.479 34.0712 165.479 36.9457 162.602C38.3252 161.221 40.1959 160.444 42.146 160.444C44.096 160.444 45.9667 161.221 47.3462 162.602C48.137 163.394 49.0615 163.965 50.051 164.323C51.268 163.332 52.4092 162.244 53.4492 161.069C51.2788 161.337 49.0146 160.635 47.3462 158.969C45.9667 157.588 44.096 156.811 42.146 156.811C40.1959 156.811 38.3252 157.588 36.9457 158.969C34.0712 161.846 29.4163 161.846 26.5417 158.969C23.6671 156.092 19.0122 156.092 16.1377 158.969C14.5415 160.567 12.3964 161.275 10.3091 161.098C11.3202 162.233 12.4217 163.292 13.6026 164.257Z" fill="#E40032"/>
</svg>
