<?xml version="1.0" encoding="UTF-8"?><svg id="a" xmlns="http://www.w3.org/2000/svg" viewBox="0 0 300 100"><path d="M189.33,50.72l1.35,4.58,2.66,8.84h.51l2.66-8.85,1.34-4.57v18.29h6.75V30.62h-6.98l-3.27,12.64-.76,2.87-.76-2.87-3.28-12.64h-6.98v38.39h6.75v-18.29Z" style="fill:#fff;"/><path d="M217.06,30.62h-6.75v38.39h6.75V30.62Z" style="fill:#fff;"/><path d="M222.57,30.57v38.44h13.26v-6.19h-6.51V30.57h-6.75Z" style="fill:#fff;"/><path d="M239.55,30.57v38.44h13.26v-6.19h-6.5V30.57h-6.75Z" style="fill:#fff;"/><path d="M263.51,56.71l.14-1.46,1.38-14.62,1.58,16.08h-3.1Zm-3.24-26.08l-3.02,24.58c-.5,4.42-1.41,11.74-1.64,13.53l-.03,.28h6.76l.03-.33c.22-2.06,.4-4.01,.54-5.78h4.27c.05,.44,.1,.88,.14,1.33,.06,.53,.12,1.06,.17,1.58l.31,3.21h7.05l-1.67-13.65-3.08-24.74h-9.82Z" style="fill:#fff;"/><path d="M283.64,39.26c0-1.77,.37-2.45,1.32-2.45,1.15,0,1.55,1.5,1.55,5.97v.26h6.75v-.26c0-4.51-.6-7.57-1.89-9.6-1.32-2.09-3.42-3.1-6.41-3.1-2.6,0-4.74,.91-6.22,2.63-1.4,1.63-2.13,3.89-2.13,6.55,0,5.14,2.95,8.78,5.55,12,2.24,2.77,4.36,5.39,4.36,8.56,0,2.7-1.04,2.99-1.49,2.99-1.35,0-1.94-2.01-1.94-6.51v-.26h-6.75v.26c0,5.68,.91,13.24,8.76,13.24,5.22,0,8.47-3.71,8.47-9.67,0-5.37-3.11-9.36-5.86-12.88-2.18-2.79-4.06-5.19-4.06-7.74Z" style="fill:#fff;"/><path d="M114.41,35.92h.13l-.02-.05c7.03,.05,11.57,4.39,11.57,11.11,0,8.95-8.58,17.11-18,17.11h-.13l.02,.05c-7.03-.05-11.57-4.39-11.57-11.11,0-8.95,8.58-17.11,18-17.11Zm-3.61,34h.18c11.64-.06,21.09-8.98,21.09-19.92s-8.95-19.89-20.38-19.92h-.18c-11.64,.06-21.09,8.98-21.09,19.92s8.95,19.9,20.38,19.92Z" style="fill:#fff;"/><path d="M158.16,35.92h.13l-.03-.05c7.03,.04,11.57,4.39,11.57,11.11,0,8.95-8.58,17.11-18,17.11h-.13l.02,.05c-7.03-.04-11.57-4.39-11.57-11.11,0-8.95,8.58-17.11,18.01-17.11Zm-3.62,34h.18c11.64-.07,21.09-8.98,21.09-19.92s-8.95-19.89-20.38-19.92h-.18c-11.64,.07-21.09,8.98-21.09,19.92,0,11.16,8.95,19.9,20.38,19.93Z" style="fill:#fff;"/><path d="M88.04,62.9h-9.96c1.32-2.79,2.81-5.23,4.25-7.6,2.46-4.06,4.8-7.9,5.49-12.38,.32-2.38,.09-4.75,.06-5.01-.66-4.87-3.39-7.44-7.89-7.44-3.18,0-5.3,1.01-6.67,3.18-1.44,2.29-2.12,5.94-2.12,11.49v.08h6.38v-.08c0-6.44,.49-8.3,2.18-8.3,.5,0,.87,.23,1.14,.7l.06,.1s.05,.12,.09,.2l.02,.04s.03,.09,.05,.14c.05,.16,.1,.34,.13,.55v.03s.02,.09,.03,.13c.16,.99,.24,2.81-.35,5.87-.23,1.57-.62,3.14-1.19,4.8l-.06,.16c-1.12,3.21-2.83,6.54-4.99,10.76-1.27,2.48-2.71,5.29-4.28,8.56l-.05,.12h17.68v-6.11Z" style="fill:#fff;"/><path d="M35.02,52.86c.05,0,.09-.03,.11-.08,.29-.81,.59-1.63,.88-2.45,.32-.88,1.04-.62,1.22-.53,.79,.38,1.58,.77,2.37,1.15,.05,.02,.09,0,.13-.02,.05-.04,.07-.1,.05-.15-.36-.78-.73-1.57-1.1-2.36h0s-.47-.91,.53-1.26h-.01c.82-.29,1.63-.58,2.45-.86,.05-.02,.09-.06,.09-.12,0-.06-.03-.11-.09-.13-.85-.31-1.7-.62-2.56-.93h0s-.01,0-.01,0c-.13-.05-.78-.34-.43-1.1,.39-.81,.78-1.63,1.17-2.43,.03-.05,.02-.12-.02-.16-.04-.05-.11-.06-.17-.04-.77,.36-1.55,.73-2.32,1.09-.96,.44-1.25-.54-1.25-.54h0c-.29-.82-.57-1.64-.86-2.46-.02-.05-.08-.08-.14-.08-.05,0-.09,.03-.11,.08-.3,.84-.61,1.68-.91,2.53-.09,.21-.42,.79-1.17,.47-.8-.39-1.6-.77-2.4-1.16-.05-.02-.09,0-.13,.02-.05,.04-.07,.1-.05,.16,.37,.8,.74,1.59,1.11,2.39,.08,.16,.35,.92-.54,1.23-.81,.28-1.62,.57-2.42,.85-.06,.02-.1,.08-.09,.15,0,.05,.03,.1,.08,.12,.84,.31,1.69,.62,2.55,.92,.71,.26,.57,.83,.48,1.03-.41,.85-.81,1.7-1.22,2.54-.02,.05-.01,.12,.03,.16,.04,.03,.1,.05,.14,.02,.78-.37,1.56-.74,2.35-1.11h0c.96-.45,1.25,.53,1.25,.53h0c.29,.82,.57,1.63,.85,2.45,.03,.06,.09,.09,.14,.08Z" style="fill:#e40032;"/><path d="M45.23,61.12c1.93,0,3.79,.77,5.15,2.15,2.68,2.7,6.94,2.85,9.81,.46,.33-.63,.65-1.27,.95-1.92-3.64-1.8-8.13-3.88-12.12-5.58-4.07-1.76-7.62-3.11-9.51-3.83-.48,1.29-1.36,3.73-2.11,6.66-.71,2.59-1.32,4.53-1.73,6.3,1.61-.16,3.18-.87,4.42-2.11,1.37-1.38,3.22-2.15,5.15-2.15Z" style="fill:#e40032;"/><path d="M24.29,43.48c-1.22-1.11-3.53-3.2-6.53-5.58-1.83-1.49-3.93-3.09-6-4.61-2.48,3.49-4.19,7.55-4.92,11.96,2.09-.16,4.17-.33,6.11-.51,5-.45,9.14-.97,11.34-1.25Z" style="fill:#e40032;"/><path d="M24.29,48.71c-2.2-.28-6.34-.79-11.34-1.24-2.01-.19-4.17-.37-6.34-.53-.1,1.01-.16,2.02-.16,3.05,0,3.95,.79,7.72,2.22,11.14,2.97-2.08,6.34-4.6,9.1-6.84,3-2.39,5.31-4.48,6.53-5.59Z" style="fill:#e40032;"/><path d="M19.46,63.27c2.85-2.86,7.46-2.86,10.31,0,1.3,1.31,2.98,2.02,4.68,2.13-.41-1.78-1.03-3.72-1.74-6.33-.76-2.94-1.64-5.37-2.11-6.66-1.89,.71-5.44,2.07-9.52,3.83-3.99,1.7-8.48,3.78-12.11,5.58,.34,.76,.72,1.5,1.12,2.23,2.85,2.05,6.83,1.78,9.38-.79Z" style="fill:#e40032;"/><path d="M21.07,35.95c4.07,1.76,7.63,3.12,9.52,3.83,.47-1.29,1.35-3.72,2.11-6.66,1.09-3.97,1.95-8.87,2.19-11.91-9.03,.05-17.07,4.31-22.28,10.93,2.76,1.31,5.73,2.65,8.46,3.81Z" style="fill:#e40032;"/><path d="M37.38,33.11c.76,2.93,1.64,5.37,2.11,6.66,1.89-.71,5.44-2.07,9.52-3.83,2.73-1.16,5.69-2.5,8.46-3.81-5.21-6.62-13.25-10.88-22.28-10.92,.25,3.04,1.11,7.94,2.2,11.9Z" style="fill:#e40032;"/><path d="M45.8,48.71c1.22,1.11,3.53,3.2,6.53,5.59,2.76,2.24,6.13,4.75,9.1,6.83,1.43-3.42,2.22-7.18,2.22-11.13,0-1.03-.06-2.06-.16-3.07-2.17,.16-4.33,.34-6.34,.53-5,.45-9.15,.96-11.35,1.24Z" style="fill:#e40032;"/><path d="M45.8,43.48c2.2,.28,6.35,.79,11.35,1.24,1.94,.18,4.01,.35,6.1,.51-.73-4.4-2.45-8.47-4.93-11.95-2.07,1.52-4.17,3.13-6,4.61-2.99,2.39-5.3,4.47-6.52,5.59Z" style="fill:#e40032;"/><path d="M45.23,72.24c-1.93,0-3.79,.77-5.15,2.15-2.85,2.86-7.46,2.86-10.31,0-2.79-2.81-7.3-2.86-10.15-.15,4.45,2.88,9.75,4.55,15.43,4.55s10.86-1.63,15.28-4.46c-1.36-1.34-3.19-2.09-5.1-2.09Z" style="fill:#e40032;"/><path d="M16.95,72.29c.92-.36,1.77-.91,2.51-1.65,2.85-2.86,7.46-2.86,10.31,0,2.85,2.86,7.46,2.86,10.31,0,1.37-1.38,3.22-2.15,5.15-2.15s3.79,.77,5.15,2.15c.78,.79,1.7,1.36,2.68,1.71,1.21-.99,2.34-2.07,3.37-3.24-2.15,.27-4.4-.43-6.05-2.09-1.37-1.38-3.22-2.15-5.15-2.15s-3.79,.77-5.15,2.15c-2.85,2.86-7.46,2.86-10.31,0-2.85-2.86-7.46-2.86-10.31,0-1.58,1.59-3.71,2.3-5.78,2.12,1,1.13,2.1,2.19,3.27,3.15Z" style="fill:#e40032;"/></svg>
